<svg width="537" height="537" viewBox="0 0 537 537" fill="none" xmlns="http://www.w3.org/2000/svg">
<g opacity="0.7">
<path d="M246.572 531.355C229.743 529.454 209.922 525.557 208.932 523.954C208.331 522.982 211.07 521.559 215.018 520.793C224.463 518.96 224.625 518.96 239.069 520.726C247.281 521.731 252.019 521.419 253.015 519.809C254.077 518.091 257.116 518.409 263.309 520.887C271.189 524.04 277.349 524.187 287.568 521.467C289.511 520.95 290.624 521.846 290.248 523.624C289.794 525.762 290.782 526.168 293.572 524.99C295.754 524.069 300.531 523.476 304.188 523.674L310.836 524.033L305.495 520.271L300.155 516.51L305.227 514.634C308.463 513.437 311.417 513.686 313.388 515.321C317.353 518.612 344.616 516.264 355.564 511.69C359.902 509.877 366.571 508.359 370.382 508.316C374.194 508.273 379.806 506.812 382.854 505.07C389.012 501.55 393.933 500.839 393.933 503.469C393.933 505.466 372.208 515.143 352.939 521.73C326.771 530.673 278.897 535.005 246.574 531.355L246.572 531.355ZM305.762 495.793C297.801 492.523 293.352 484.614 296.957 480.141C298.532 478.187 298.293 477.361 296.148 477.337C294.011 477.313 293.866 476.819 295.66 475.675C297.064 474.78 298.888 469.062 299.715 462.968C300.541 456.874 302.519 447.4 304.111 441.917C305.703 436.432 306.99 429.951 306.971 427.513C306.935 422.818 308.876 408.035 311.141 395.759C312.955 385.922 308.584 378.291 298.057 372.921C293.387 370.539 289.024 366.89 288.361 364.812C285.067 354.491 277.406 339.039 271.3 330.404C265.34 321.975 269.409 303.963 279.26 295.168C285.205 289.86 286.221 287.539 285.626 280.625C285.237 276.1 284.114 271.899 283.13 271.29C282.147 270.68 281.247 269.184 281.13 267.966C281.014 266.747 279.672 265.75 278.149 265.75C276.626 265.75 275.619 266.97 275.913 268.46C276.606 271.976 263.321 269.52 259.165 265.364C257.549 263.748 255.301 262.426 254.169 262.426C253.038 262.426 252.112 261.104 252.112 259.488C252.112 254.74 242.755 247.518 234.384 245.806C230.118 244.934 224.443 242.214 221.771 239.762C218.515 236.774 213.21 235.104 205.677 234.698C194.132 234.075 182.258 228.423 184.585 224.658C185.307 223.49 182.911 222.539 179.247 222.539C170.945 222.539 168.384 218.824 173.778 214.604C176.033 212.839 176.791 211.659 175.464 211.981C173.452 212.47 164.935 203.819 158.588 194.84C157.726 193.621 153.991 189.134 150.288 184.868L143.554 177.112L147.029 184.314C148.94 188.275 151.396 191.516 152.487 191.516C153.578 191.516 153.936 192.911 153.282 194.616C152.628 196.32 153.157 198.374 154.459 199.178C155.761 199.983 156.826 202.233 156.826 204.178C156.826 207.258 156.254 207.197 152.395 203.703C149.957 201.498 147.963 198.32 147.963 196.643C147.963 194.965 146.437 193.007 144.573 192.292C142.503 191.497 141.675 189.44 142.447 187.008C143.142 184.817 142.673 182.384 141.405 181.6C140.137 180.816 139.099 178.385 139.099 176.197C139.099 174.01 136.697 169.628 133.761 166.459C125.616 157.672 123.376 143.479 128.24 131.487C132.706 120.476 133.57 111.743 130.193 111.743C128.918 111.743 128.514 109.435 129.265 106.445C129.996 103.531 129.516 100.48 128.199 99.6661C126.874 98.8469 125.803 99.7288 125.803 101.64C125.803 103.54 124.769 105.095 123.504 105.095C122.239 105.095 121.397 102.851 121.632 100.109C122.445 90.6473 121.358 87.368 117.408 87.368C112.376 87.368 96.7452 95.269 94.4584 98.9674C93.5054 100.509 91.9414 101.783 90.9829 101.798C90.0244 101.813 84.6304 105.014 78.9968 108.912C73.3627 112.81 68.1675 115.414 67.4513 114.699C66.7356 113.983 69.3441 111.245 73.2479 108.614C77.1516 105.984 80.6866 101.872 81.1033 99.4772C81.52 97.0825 85.5156 91.8848 89.9823 87.9271C94.4492 83.9689 96.2227 81.3856 93.9235 82.1864C87.558 84.4036 90.5688 77.9889 97.4749 74.62C100.605 73.093 103.763 69.6028 104.491 66.8642C106.243 60.2809 121.55 49.7169 129.481 49.6194C132.943 49.5766 141.758 48.2703 149.07 46.7165C156.383 45.1628 166.039 44.1397 170.528 44.4432C177.235 44.8966 178.635 44.2764 178.385 40.9617C178.139 37.6912 177.348 37.3866 174.202 39.3511C172.069 40.6836 169.637 41.0878 168.798 40.2493C166.68 38.1311 172.166 31.9698 176.17 31.9698C178.099 31.9698 178.961 30.6704 178.253 28.8275C177.459 26.7573 179.835 24.4577 185.218 22.088C189.712 20.1097 191.394 18.9453 188.957 19.5005C183.108 20.8328 169.995 25.4262 165.166 27.835C163.049 28.8904 159.31 29.7539 156.856 29.7539C154.402 29.7539 152.394 30.6329 152.394 31.7072C152.394 33.6328 136.6 39.9714 125.803 42.3784C121.006 43.4481 121.303 42.8993 128.019 38.2826C152.015 21.7893 173.344 12.7085 206.221 4.98856C223.076 1.03059 233.57 0.184591 266.515 0.127219C306.264 0.0579772 336.086 3.62782 329.544 7.67195C327.901 8.68711 325.722 9.0016 324.702 8.37091C323.681 7.74026 312.491 6.92412 299.834 6.55728C280.52 5.99745 277.02 6.40368 278.049 9.08554C278.724 10.843 280.525 11.8012 282.053 11.2149C285.858 9.75495 303.753 19.0932 315.331 28.5791C320.581 32.8811 325.715 36.4008 326.74 36.4008C327.765 36.4008 329.898 38.4736 331.481 41.0069C333.999 45.0401 333.818 45.754 330.018 46.7476C324.312 48.2397 322.755 57.245 326.411 67.608C328.018 72.1616 328.85 76.3696 328.26 76.9592C326.234 78.9853 313.139 71.0183 304.601 62.5647C299.9 57.9099 294.987 54.7602 293.684 55.5654C292.376 56.3739 291.954 55.9963 292.741 54.7223C293.525 53.4533 292.637 51.1451 290.767 49.593C288.896 48.0409 287.879 45.4349 288.506 43.8021C289.146 42.1341 288.188 40.8332 286.321 40.8332C284.493 40.8332 282.423 39.3376 281.721 37.5094C281.02 35.6813 279.385 34.1855 278.088 34.1855C276.79 34.1855 274.111 32.7211 272.133 30.9311C269.483 28.5329 266.814 28.1913 261.987 29.6327C258.384 30.7084 256.761 31.6742 258.381 31.7791C263.158 32.0881 279.023 49.4519 278.337 53.6217C277.99 55.729 278.364 58.498 279.167 59.775C279.97 61.052 279.725 63.5449 278.621 65.3148C276.916 68.05 275.192 67.7838 267.134 63.5409C261.92 60.7953 255.967 58.5517 253.906 58.5551C248.885 58.5633 246.559 54.4208 250.693 52.8344C252.504 52.1394 254.555 50.0869 255.251 48.2732C256.201 45.7985 255.414 45.3257 252.099 46.378C248.845 47.4107 247.681 46.7677 247.681 43.9376C247.681 41.8242 247.025 40.7512 246.223 41.5532C245.421 42.3551 243.676 42.1078 242.345 41.0037C240.674 39.6174 239.934 41.3904 239.952 46.7338C239.97 51.7931 241.329 55.2264 243.877 56.6525C246.02 57.852 247.307 59.589 246.737 60.5123C246.166 61.4356 248.389 61.8004 251.676 61.323C255.707 60.7376 260.9 62.6478 267.624 67.1894C275.311 72.3811 277.76 73.1795 278.312 70.6744C279.405 65.7205 281.478 66.6483 290.917 76.3149C295.691 81.2043 300.568 84.8814 301.754 84.4861C304.254 83.6527 310.037 89.048 315.373 97.1917C319.106 102.89 324.524 105.321 321.876 100.11C321.102 98.5863 322.538 99.6939 325.069 102.571C327.599 105.448 329.654 109.437 329.636 111.435C329.606 114.59 329.319 114.63 327.454 111.743C325.544 108.789 325.282 108.789 325.097 111.743C324.953 114.025 324.537 114.198 323.77 112.297C321.983 107.869 312.379 108.833 312.742 113.404C312.937 115.859 311.221 117.541 308.064 117.99C305.322 118.38 303.078 119.758 303.078 121.053C303.078 122.52 299.738 122.959 294.215 122.218C286.977 121.247 285.342 121.702 285.302 124.696C285.275 126.713 283.302 130.856 280.919 133.903C278.536 136.949 276.564 140.811 276.536 142.484C276.495 145.061 275.902 145.061 272.647 142.484C269.085 139.662 269.092 139.887 272.74 145.599C277.07 152.38 276.324 154.621 267.167 162.326C260.915 167.586 258.876 176.662 263.328 179.414C266.583 181.426 270.157 191.426 268.55 194.026C266.629 197.135 260.801 191.634 257.402 183.503C255.302 178.479 252.603 176.214 247.497 175.193C236.609 173.016 232.168 173.512 232.168 176.906C232.168 178.91 230.618 179.617 227.825 178.886C222.807 177.574 209.328 185.253 204.468 192.192C200.199 198.286 200.255 205.59 204.64 214.832C208.721 223.431 212.026 225.128 221.142 223.305C225.704 222.393 228.209 220.323 229.113 216.718C229.839 213.826 231.571 211.384 232.963 211.291C234.354 211.198 237.233 210.788 239.361 210.38C245.142 209.273 246.069 212.727 242.067 220.465C240.099 224.271 239.053 227.947 239.742 228.636C240.43 229.325 239.849 231.267 238.451 232.952C236.345 235.49 237.346 235.858 244.273 235.095C257.994 233.583 260.707 235.161 260.577 244.583C260.358 260.487 265.524 267.108 274.431 262.341C277.368 260.769 280.042 260.771 282.989 262.349C288.69 265.4 288.955 265.346 293.798 260.147C296.102 257.675 299.88 255.268 302.194 254.798C304.509 254.329 308.311 253.191 310.643 252.269C313.618 251.095 314.406 251.369 313.283 253.186C312.401 254.612 312.736 255.779 314.027 255.779C315.318 255.779 316.374 254.841 316.374 253.694C316.374 252.548 319.044 252.996 322.309 254.689C325.573 256.383 329.217 257.166 330.407 256.431C331.597 255.696 331.929 256.132 331.145 257.401C330.361 258.669 331.952 260.305 334.68 261.037C341.653 262.906 343.421 262.742 341.952 260.364C341.25 259.229 341.844 257.58 343.271 256.698C344.892 255.696 345.272 256.055 344.285 257.653C342.815 260.031 345.9 261.088 353.491 260.806C355.014 260.75 356.279 262.338 356.3 264.335C356.356 269.419 371.459 281.35 379.964 283.029C388.537 284.722 396.147 290.834 396.147 296.027C396.147 298.122 397.21 300.492 398.508 301.295C400.052 302.249 399.498 304.401 396.905 307.519C394.725 310.14 394.349 311.05 396.069 309.541C398.608 307.315 401.85 308.255 413.26 314.527C420.995 318.778 429.128 322.257 431.335 322.257C433.541 322.257 437.091 324.184 439.222 326.539C441.354 328.895 444.5 330.284 446.214 329.626C448.468 328.761 449.329 330.285 449.329 335.134C449.329 339.86 446.421 345.246 439.47 353.389C434.047 359.742 428.936 368.05 428.11 371.851C425.834 382.334 415.892 394.989 407.78 397.727C403.819 399.064 400.578 401.553 400.578 403.259C400.578 404.964 397.836 408.123 394.484 410.278C391.133 412.432 386.592 416.42 384.394 419.138C373.512 432.599 361.656 442.04 356.723 441.174C352.895 440.501 351.805 441.217 352.291 444.083C352.981 448.158 348.208 455.213 344.76 455.213C343.609 455.213 337.249 459.891 330.627 465.608C322.629 472.513 319.477 476.553 321.239 477.641C323.101 478.792 322.275 480.646 318.469 483.864C313.387 488.162 313.29 488.637 316.926 491.464C319.058 493.123 320.803 495.002 320.803 495.639C320.803 498.45 312.432 498.536 305.759 495.794L305.762 495.793ZM296.846 114.661C295.247 114.021 293.335 114.1 292.599 114.836C291.863 115.572 293.172 116.096 295.508 116C298.089 115.893 298.614 115.368 296.846 114.661ZM311.864 104.611C311.907 103.735 310.447 103.592 308.619 104.294C306.676 105.039 305.281 104.319 305.261 102.562C305.233 100.112 304.861 100.133 303.252 102.675C302.054 104.567 302.229 107.885 303.697 111.106L306.117 116.418L308.951 111.31C310.51 108.501 311.821 105.486 311.864 104.611ZM241.033 110.842C241.033 110.399 238.753 108.543 235.968 106.718C231.424 103.741 230.432 103.78 226.328 107.103C221.879 110.706 222.018 110.819 231.393 111.227C236.695 111.458 241.033 111.285 241.033 110.842ZM235.703 99.435C231.682 96.4947 231.673 96.2827 235.492 94.817C237.694 93.9721 243.237 94.2796 247.811 95.5003C254.865 97.3832 255.933 97.2157 254.851 94.3961C254.025 92.2446 254.484 91.6336 256.15 92.6638C257.567 93.5391 260.478 93.2344 262.621 91.9867C266.159 89.9263 266.084 89.712 261.807 89.6508C258.198 89.5992 257.098 88.2012 257.098 83.6625C257.098 80.406 255.229 76.3743 252.944 74.7033C250.658 73.0324 249.038 71.2096 249.343 70.6526C250.877 67.849 249.533 65.2082 246.573 65.2082C244.745 65.2082 243.249 64.1279 243.249 62.8076C243.249 61.4873 242.002 60.854 240.479 61.4002C238.956 61.9464 235.94 61.483 233.778 60.3703C230.725 58.7995 228.575 59.8587 224.158 65.1075C221.029 68.8257 217.668 71.3723 216.688 70.7667C215.708 70.161 214.339 71.1436 213.646 72.9501C212.953 74.7567 213.097 76.0136 213.968 75.7433C214.838 75.4731 218.336 78.0676 221.742 81.5091C225.617 85.4241 229.259 87.2581 231.472 86.4088C236.042 84.655 243.695 87.0691 242.042 89.7432C241.343 90.8742 239.276 91.7997 237.448 91.7997C235.499 91.7997 234.778 90.7408 235.705 89.2413C236.692 87.6435 236.312 87.2851 234.691 88.2865C233.264 89.1684 232.671 90.8182 233.372 91.9528C234.073 93.0873 233.591 94.0156 232.3 94.0156C231.009 94.0156 229.953 93.0184 229.953 91.7997C229.953 87.9009 221.646 89.4309 220.575 93.527C219.357 98.184 224.518 104.079 226.71 100.534C227.693 98.9427 228.989 98.9436 230.908 100.537C232.436 101.804 234.341 102.185 235.143 101.383C235.945 100.581 236.601 101.254 236.601 102.879C236.601 104.504 237.347 105.088 238.26 104.175C239.172 103.263 238.021 101.13 235.703 99.435ZM252.113 87.4982C252.113 86.3514 253.098 84.8038 254.303 84.0592C255.559 83.2829 255.931 84.1724 255.174 86.1443C253.701 89.9832 252.113 90.6857 252.113 87.4982ZM224.283 81.898C221.917 80.1086 221.146 78.6129 222.57 78.5741C226.78 78.4595 232.169 81.0412 232.169 83.1726C232.169 86.0768 229.166 85.5914 224.283 81.898ZM298.647 103.511C298.647 103.249 296.757 102.024 294.448 100.788C291.454 99.1855 289.6 99.3222 287.988 101.264C286.289 103.312 287.33 103.987 292.188 103.987C295.74 103.987 298.647 103.773 298.647 103.511ZM265.408 98.4473C265.408 97.2286 263.853 96.2313 261.953 96.2313C260.053 96.2313 259.115 97.2285 259.868 98.4473C260.622 99.6661 262.176 100.663 263.323 100.663C264.47 100.663 265.408 99.666 265.408 98.4473ZM273.164 98.4473C272.411 97.2286 271.354 96.2313 270.817 96.2313C270.28 96.2313 269.84 97.2285 269.84 98.4473C269.84 99.6661 270.896 100.663 272.187 100.663C273.477 100.663 273.917 99.666 273.164 98.4473ZM201.146 87.2938C198.335 85.4147 198.762 84.2402 203.916 79.6783C207.268 76.7117 210.01 73.049 210.01 71.5389C210.01 70.0287 208.596 70.7272 206.867 73.0911C205.139 75.4549 202.978 76.6426 202.066 75.7306C201.154 74.8184 201.571 74.072 202.993 74.072C204.415 74.072 205.578 72.5764 205.578 70.7482C205.578 66.4474 201.385 66.4383 199.736 70.7354C199.038 72.5565 197.557 73.4848 196.446 72.7983C195.335 72.1117 195 70.6216 195.701 69.4871C196.402 68.3526 195.979 67.4243 194.76 67.4243C193.541 67.4243 191.918 68.4378 191.152 69.6763C190.387 70.915 188.726 71.289 187.461 70.5073C185.978 69.5911 186.23 68.4095 188.168 67.1812C190.616 65.6301 190.557 65.2845 187.851 65.3208C183.643 65.3773 172.43 71.6716 176.348 71.7777C177.943 71.8208 178.689 72.7603 178.007 73.8654C177.324 74.9705 179.01 75.4066 181.754 74.8345L186.743 73.7943L181.635 76.8461L176.528 79.8979L182.684 82.7027C187.124 84.7261 189.071 84.8148 189.669 83.0212C190.267 81.2268 191.391 81.277 193.711 83.2017C196.3 85.351 196.366 86.2225 194.049 87.6921C192.177 88.8799 193.492 89.5157 197.822 89.5157C202.999 89.5157 203.734 89.024 201.146 87.2938ZM192.749 79.3793C189.583 75.9536 191.721 75.298 196.397 78.2608C198.05 79.3086 198.549 80.6844 197.505 81.3183C196.461 81.9521 194.32 81.0795 192.749 79.3793ZM279.736 78.836C278.488 77.5216 274.272 80.8528 274.272 83.1539C274.272 84.3488 275.667 84.0406 277.373 82.4691C279.078 80.8976 280.141 79.2627 279.736 78.836ZM216.658 82.0649C216.658 81.5859 215.111 80.6002 213.219 79.8743C211.247 79.1176 210.358 79.489 211.134 80.7452C212.435 82.8507 216.658 83.8596 216.658 82.0649ZM182.944 59.5808C184.859 57.9132 183.763 57.3207 178.973 57.4356C175.334 57.5229 170.608 59.5236 168.47 61.8816C164.664 66.0813 164.681 66.0882 169.35 62.2206C174.307 58.1141 178.349 60.3943 175.63 65.7627C174.858 67.2862 175.593 67.0369 177.263 65.2087C178.932 63.3806 181.489 60.848 182.944 59.5808ZM201.147 62.8621C201.147 61.5713 200.15 61.1316 198.931 61.8848C197.712 62.6381 196.715 63.6941 196.715 64.2316C196.715 64.7691 197.712 65.2088 198.931 65.2088C200.15 65.2088 201.147 64.1528 201.147 62.8621ZM189.471 45.9454C187.315 45.3836 184.323 45.4205 182.823 46.0275C181.323 46.6345 183.087 47.0942 186.743 47.049C190.399 47.0039 191.627 46.5072 189.471 45.9454ZM206.745 43.4772C206.063 42.7949 204.275 43.4758 202.772 44.9902C200.6 47.1787 200.854 47.4332 204.012 46.2307C206.198 45.3985 207.428 44.1594 206.745 43.4772ZM232.17 40.7025C232.17 39.5557 231.339 38.6174 230.324 38.6174C229.308 38.6174 228.477 40.0694 228.477 41.8439C228.477 43.6184 229.308 44.5568 230.324 43.929C231.339 43.3013 232.17 41.8493 232.17 40.7025ZM223.282 36.3556C221.964 33.8928 221.622 30.652 222.521 29.1538C223.551 27.4394 222.747 27.5743 220.352 29.5173C216.786 32.4105 216.781 32.8641 220.27 36.7191C225.122 42.0806 226.272 41.9419 223.282 36.3556ZM212.042 37.8211C211.534 37.3832 208.127 36.3557 204.471 35.5378C199.616 34.4519 198.72 34.6574 201.147 36.3001C204.139 38.3251 214.266 39.7388 212.042 37.8211ZM192.283 31.7669C195.238 29.6774 195.238 29.5248 192.283 30.3934C190.455 30.9309 186.965 30.345 184.527 29.0913C180.566 27.0538 180.418 27.2031 183.137 30.4987C186.678 34.7918 187.788 34.9456 192.283 31.7669ZM203.363 28.7152C203.363 26.6562 202.074 25.9556 199.853 26.8076C197.027 27.8919 196.919 28.5194 199.299 30.0279C203.235 32.5228 203.363 32.4816 203.363 28.7152ZM261.864 27.5377C270.57 27.5377 261.659 22.6793 252.054 22.1889C246.263 21.8933 241.639 20.2836 239.952 17.9762C236.003 12.5759 234.386 13.362 234.386 20.6824C234.386 25.9628 235.159 26.9206 238.68 25.9999C241.042 25.3823 245.239 26.4636 248.007 28.4027C251.332 30.7312 253.786 31.183 255.236 29.7331C256.444 28.5256 259.426 27.5377 261.864 27.5377ZM212.227 27.5377C212.227 26.3189 211.171 25.3217 209.88 25.3217C208.589 25.3217 208.15 26.3189 208.903 27.5377C209.656 28.7565 210.712 29.7536 211.25 29.7536C211.787 29.7536 212.227 28.7564 212.227 27.5377ZM272.473 6.08061C270.873 5.4405 268.962 5.51923 268.226 6.25556C267.489 6.99188 268.798 7.51556 271.134 7.4194C273.716 7.31309 274.241 6.78805 272.473 6.08061ZM331.209 491.469C328.846 489.106 331.868 486.238 336.721 486.238C340.535 486.238 340.836 486.79 338.535 489.562C335.556 493.151 333.442 493.702 331.209 491.469ZM93.6783 437.566C87.5845 430.463 82.1971 425.034 81.7048 425.499C81.2134 425.966 78.4462 423.142 75.5555 419.224C70.1804 411.939 62.7134 406.683 57.5385 406.543C55.9431 406.499 55.2293 407.421 55.9525 408.591C56.7378 409.862 54.5879 409.784 50.6128 408.399C45.4201 406.588 42.4252 402.835 36.9789 391.314C25.7551 367.57 25.6209 366.986 30.7661 364.233C33.3511 362.849 34.7794 360.451 34.0893 358.652C33.4237 356.918 33.845 355.498 35.0254 355.498C36.2059 355.498 37.1718 353.94 37.1718 352.035C37.1718 349.716 38.8183 348.801 42.1577 349.265C45.6164 349.746 47.1522 348.819 47.1717 346.237C47.1873 344.19 47.9352 341.78 48.8337 340.882C49.7322 339.983 50.4674 340.332 50.4674 341.657C50.4674 342.982 53.4589 344.724 57.1152 345.527C60.7715 346.33 63.763 348.243 63.763 349.779C63.763 351.314 66.5052 353.946 69.8568 355.625C73.2083 357.305 76.5002 358.978 77.172 359.343C77.8438 359.708 77.984 356.499 77.4836 352.212C76.3687 342.663 80.5471 341.727 82.5984 351.066C83.4014 354.723 84.8991 357.714 85.9265 357.714C86.9539 357.714 89.0163 361.454 90.5097 366.024C92.0031 370.594 95.3213 376.483 97.8834 379.11C104.559 385.956 108.082 390.528 108.082 392.347C108.082 393.217 109.653 395.664 111.573 397.786C116.238 402.941 117.342 419.553 113.394 425.189C111.691 427.621 110.298 431.364 110.298 433.507C110.298 435.836 108.024 437.974 104.647 438.822C99.0645 440.223 99.0513 440.278 103.539 443.422C107.974 446.528 109.734 450.934 106.42 450.632C105.506 450.549 99.7717 444.669 93.6783 437.566ZM111.062 403.045C110.34 401.165 109.274 400.101 108.694 400.682C108.113 401.263 108.295 402.802 109.098 404.101C111.283 407.637 112.56 406.95 111.062 403.045ZM131.473 446.553C130.154 444.42 147.148 435.296 152.545 435.238C155.208 435.21 155.184 434.856 152.4 433.056C149.781 431.364 149.722 430.901 152.123 430.874C154.323 430.85 154.8 428.993 153.84 424.192C153.09 420.442 153.452 417.545 154.671 417.545C155.859 417.545 156.832 418.542 156.832 419.761C156.832 420.979 158.917 424.062 161.466 426.611L166.102 431.246L160.913 434.905C158.059 436.917 155.225 438.573 154.616 438.583C154.006 438.594 150.362 440.845 146.518 443.585C139.169 448.823 133.56 449.93 131.473 446.553ZM152.842 392.726C151.38 391.264 150.183 389.27 150.183 388.295C150.183 385.03 153.521 386.477 156.317 390.954C159.347 395.806 157.079 396.963 152.842 392.726ZM501.399 390.4C502.289 387.658 503.925 374.445 505.036 361.039C506.231 346.608 508.467 334.131 510.518 330.454C513.433 325.227 513.567 322.522 511.366 313.345C509.912 307.284 509.42 298.481 510.259 293.517C511.62 285.46 511.316 284.589 507.141 284.589C504.505 284.589 502.514 283.159 502.514 281.265C502.514 277.077 498.258 277.111 492.659 281.346C490.285 283.141 486.583 284.051 484.433 283.369C482.282 282.686 478.597 283.158 476.244 284.418C470.685 287.392 461.142 280.232 456.793 269.822C455.099 265.766 452.477 262.692 450.968 262.992C449.007 263.382 448.224 259.33 448.224 248.793C448.224 240.683 449.009 234.533 449.968 235.125C450.927 235.717 451.502 232.879 451.246 228.818C450.99 224.757 452.687 217.945 455.017 213.679C457.347 209.413 459.266 204.427 459.282 202.599C459.297 200.771 460.306 199.415 461.523 199.586C464.573 200.014 476.472 191.33 474.939 189.796C474.256 189.114 475.351 186.729 477.37 184.498C479.39 182.266 480.267 180.44 479.32 180.44C478.372 180.44 478.966 178.695 480.638 176.562C483.395 173.047 483.316 172.969 479.802 175.725C477.669 177.398 475.799 178.146 475.647 177.387C475.495 176.629 475.223 174.762 475.043 173.238C474.863 171.715 472.851 170.794 470.571 171.192C466.896 171.834 466.609 170.953 468.047 163.436C468.939 158.773 469.583 152.613 469.479 149.749C469.183 141.635 471.212 140.294 478.266 143.942C484.338 147.082 484.788 147.035 484.788 143.256C484.788 141.024 482.295 135.819 479.248 131.689C472.654 122.752 472.626 122.624 477.586 124.184C481.095 125.287 481.127 125.122 477.92 122.452C474.077 119.252 473.835 118.644 473.451 111.192C473.258 107.44 472.943 107.166 472.18 110.084C471.623 112.217 469.861 113.962 468.264 113.962C464.192 113.962 462.231 105.111 465.984 103.671C467.641 103.035 468.45 101.091 467.782 99.3495C466.899 97.0508 467.65 96.5995 470.522 97.7017C473.624 98.8919 474.161 98.3944 473.01 95.3958C472.085 92.9861 472.409 92.1073 473.884 93.0194C475.172 93.8153 475.665 95.9287 474.979 97.7157C474.294 99.5027 476.193 105.373 479.201 110.76C482.209 116.147 484.167 122.312 483.552 124.46C482.917 126.679 483.539 126.276 484.992 123.528C487.105 119.529 486.689 117.3 482.591 110.67C479.865 106.258 478.065 102.218 478.592 101.691C479.898 100.385 492.821 118.935 494.675 124.774C495.495 127.359 496.892 129.473 497.779 129.473C501.172 129.473 524.675 181.79 524.675 189.341C524.675 191.282 523.067 190.628 520.157 187.505C516.098 183.148 511.379 181.069 511.379 183.637C511.379 185.162 520.578 200.382 521.5 200.382C521.951 200.382 521.693 198.747 520.926 196.749C519.782 193.768 520.262 193.525 523.604 195.395C525.844 196.649 527.873 199.53 528.113 201.798C528.352 204.066 529.181 208.914 529.954 212.57C530.727 216.226 532.82 229.42 534.605 241.889C538.113 266.396 536.391 298 530.017 326.038C528.298 333.601 526.885 343.074 526.879 347.088C526.858 359.31 522.538 371.403 517.745 372.656C515.344 373.284 510.918 378.654 507.91 384.59C502.224 395.811 498.593 399.05 501.401 390.397L501.399 390.4ZM516.216 177.745C514.626 176.155 513.594 176.024 513.594 177.413C513.594 180.371 516.214 182.991 517.693 181.512C518.323 180.883 517.658 179.188 516.216 177.745ZM510.378 177.672C508.525 169.223 500.945 156.109 497.902 156.088C493.849 156.062 488.239 165.317 489.683 169.649C490.222 171.266 492.582 172.689 494.926 172.812C506.443 173.414 509.141 173.925 508.899 175.455C508.494 178.021 509.064 180.441 510.073 180.441C510.575 180.441 510.712 179.195 510.378 177.672ZM198.93 380.802C198.93 378.872 200.114 377.688 201.561 378.171C205.67 379.54 206.351 384.311 202.438 384.311C200.508 384.311 198.93 382.732 198.93 380.802ZM206.708 377.699C205.942 376.46 206.87 375.447 208.771 375.447C212.663 375.447 213.236 376.777 210.162 378.676C209.028 379.377 207.473 378.938 206.708 377.699ZM160.335 371.806C158.48 366.971 160.943 364.724 163.561 368.863C166.181 373.007 166.237 375.447 163.711 375.447C162.623 375.447 161.104 373.808 160.335 371.806ZM141.315 348.925C141.315 347.744 139.82 347.352 137.991 348.054C133.953 349.604 133.587 345.863 137.463 342.646C139.535 340.927 140.916 341.718 142.795 345.698C144.189 348.653 144.427 351.071 143.323 351.071C142.219 351.071 141.315 350.105 141.315 348.925ZM98.057 346.074C95.6456 344.745 92.3696 341.835 90.7769 339.608C87.6943 335.298 81.4849 334.073 81.4849 337.776C81.4849 338.994 79.4905 339.992 77.053 339.992C74.6155 339.992 72.6211 338.994 72.6211 337.776C72.6211 336.557 70.6268 335.56 68.1893 335.56C65.7518 335.56 63.7574 334.563 63.7574 333.344C63.7574 332.125 64.763 331.128 65.9922 331.128C70.3678 331.128 62.9402 322.695 55.3956 319.097C50.3533 316.692 48.2399 314.396 49.0723 312.227C49.8153 310.291 49.0302 308.968 47.138 308.968C45.2174 308.968 44.4595 310.287 45.2286 312.292C46.1568 314.711 44.9664 315.616 40.8581 315.616C37.7526 315.616 34.5956 314.619 33.8424 313.4C33.0892 312.181 34.5261 311.184 37.0355 311.184C39.5449 311.184 41.7228 310.187 41.8751 308.968C42.0275 307.749 42.2768 305.838 42.4291 304.721C42.8783 301.427 46.03 299.117 46.03 302.082C46.03 303.575 46.9142 304.251 47.9949 303.583C49.0756 302.916 51.192 303.854 52.6981 305.669C54.2042 307.483 54.6164 308.968 53.614 308.968C52.6116 308.968 52.9458 310.122 54.3567 311.533C56.2996 313.476 57.7085 313.446 60.1647 311.407C62.7668 309.248 65.5488 309.801 74.2471 314.209C80.2091 317.23 86.3928 321.275 87.9888 323.199C89.5849 325.122 93.6381 326.696 96.996 326.696C103.165 326.696 109.268 321.979 106.579 319.29C105.777 318.488 106.226 317.832 107.576 317.832C112.302 317.832 112.695 322.248 108.382 326.878C105.464 330.01 102.568 331.085 99.5915 330.14C91.8404 327.68 91.3705 333.63 98.7924 340.262C106.043 346.74 105.601 350.232 98.057 346.074ZM124.443 339.584C123.413 337.916 124.053 337.48 126.278 338.334C128.157 339.055 130.701 338.639 131.931 337.409C133.435 335.906 134.654 335.962 135.656 337.583C136.474 338.908 136.836 340.066 136.46 340.156C129.428 341.847 125.733 341.671 124.443 339.584ZM24.6831 333.002C23.6267 331.303 20.0552 328.192 16.7464 326.089C8.27422 320.702 5.10339 314.274 9.99365 312.396C12.0671 311.601 13.0438 311.669 12.1643 312.549C9.92067 314.793 17.3158 322.467 20.077 320.761C21.3518 319.973 21.6666 320.451 20.7982 321.856C19.866 323.365 21.4817 324.908 24.8876 325.763C30.9592 327.287 31.4978 328.366 28.5271 333.055C26.9035 335.618 26.3048 335.61 24.6831 333.002ZM31.8669 332.407C32.5322 330.673 34.6063 328.667 36.4759 327.95C38.9127 327.015 39.4916 327.645 38.5205 330.176C37.7754 332.118 37.1658 334.123 37.1658 334.633C37.1658 335.143 35.7014 335.56 33.9115 335.56C32.0078 335.56 31.1592 334.251 31.8669 332.407ZM116.94 331.128C113.951 325.544 116.449 325.544 123.588 331.128C129.069 335.415 129.076 335.462 124.22 335.51C121.52 335.538 118.245 333.565 116.94 331.128ZM46.0297 330.151C46.0297 329.613 47.0268 328.557 48.2456 327.804C49.4644 327.051 50.4615 327.49 50.4615 328.781C50.4615 330.072 49.4644 331.128 48.2456 331.128C47.0268 331.128 46.0297 330.688 46.0297 330.151ZM53.9692 326.993C53.0147 325.449 52.8321 323.587 53.5635 322.855C55.5468 320.872 57.709 323.789 56.6378 327.002C55.8873 329.254 55.3654 329.252 53.9692 326.993ZM23.1652 318.604C22.3344 317.773 21.5366 312.523 21.3924 306.937C21.1716 298.385 20.9092 297.811 19.7304 303.303C18.9606 306.89 17.5828 309.632 16.6687 309.397C15.7547 309.161 14.1206 308.968 13.0374 308.968C8.53605 308.968 8.28764 293.83 12.614 283.168C16.8683 272.684 17.4579 272.853 18.3426 284.817C18.9716 293.323 21.5363 296.212 27.4541 295.081C30.9256 294.417 32.7341 295.105 32.7341 297.088C32.7341 298.748 30.4906 300.168 27.7483 300.245L22.7625 300.386L27.7483 302.39C30.4906 303.492 32.7189 305.673 32.7002 307.235C32.6741 309.422 32.2275 309.384 30.7612 307.07C29.7135 305.417 28.2988 304.966 27.6175 306.068C26.9362 307.17 27.2949 309.52 28.4146 311.29C29.5342 313.06 30.3869 316.004 30.3093 317.832C30.1989 320.436 29.9079 320.502 28.967 318.136C28.1212 316.009 27.3087 315.855 26.2207 317.615C25.3709 318.99 23.9959 319.435 23.1652 318.604ZM243.622 311.184C244.737 307.838 248.301 307.493 249.347 310.63C249.854 312.154 248.608 313.4 246.577 313.4C244.545 313.4 243.216 312.403 243.622 311.184ZM57.2899 308.045C57.1937 305.709 57.7174 304.4 58.4538 305.137C59.1901 305.873 59.2688 307.784 58.6287 309.384C57.9213 311.152 57.3962 310.627 57.2899 308.045ZM2.67542 295.119C0.137061 274.352 0.100573 273.405 1.79918 272.355C2.66333 271.821 4.05664 277.597 4.8953 285.191C5.73404 292.784 6.96597 301.241 7.63286 303.983C8.29974 306.725 7.838 308.969 6.60675 308.969C5.37549 308.969 3.60645 302.737 2.67542 295.119ZM37.0078 308.415C35.3413 302.808 35.3763 296.778 37.0924 293.836C38.7432 291.007 39.2696 292.357 39.3211 299.55C39.3582 304.73 38.8899 308.968 38.2805 308.968C37.6711 308.968 37.0984 308.719 37.0078 308.415ZM136.89 290.085C136.89 288.231 134.397 285.578 131.35 284.19C126.529 281.993 123.676 277.945 126.948 277.945C128.992 277.945 137.958 283.431 139.626 285.701C141.988 288.916 141.683 293.457 139.106 293.457C137.887 293.457 136.89 291.94 136.89 290.085ZM26.0934 275.73C24.4853 272.725 24.4602 271.298 26.0155 271.298C27.2771 271.298 28.3093 269.743 28.3093 267.843C28.3093 265.943 29.3065 265.005 30.5253 265.758C33.3667 267.514 33.435 280.162 30.6032 280.162C29.4273 280.162 27.398 278.167 26.0934 275.73ZM15.0476 268.659C15.0663 267.063 16.0482 264.262 17.2296 262.434C18.976 259.732 19.384 260.018 19.4116 263.965C19.4302 266.636 18.4483 269.437 17.2296 270.19C16.0108 270.943 15.0289 270.254 15.0476 268.659ZM1.43217 261.88C0.554252 239.77 8.39148 189.08 12.9387 187.462C14.0803 187.056 15.0144 184.486 15.0144 181.75C15.0144 175.747 25.3228 149.492 29.2977 145.372C31.6498 142.934 32.3732 143.049 33.5215 146.041C34.404 148.341 34.0256 149.107 32.4791 148.151C30.8721 147.158 30.5379 148.184 31.4906 151.186C32.4552 154.225 31.4846 157.068 28.5484 159.804C23.8853 164.148 19.4463 173.952 19.4463 179.904C19.4463 182.914 19.982 182.799 22.6998 179.206C24.4891 176.84 25.9849 172.163 26.0237 168.811C26.0624 165.459 27.0913 162.717 28.31 162.717C32.3166 162.717 30.6244 177.905 25.5401 187.579C21.2703 195.702 20.4526 196.349 19.8462 192.079C19.4568 189.337 18.3266 187.093 17.3347 187.093C13.0099 187.093 10.8875 214.457 15.0145 217.008C18.7005 219.286 17.723 227.643 13.9403 226.191C9.05853 224.318 6.78695 230.731 6.59717 246.923C6.34072 268.803 6.30723 269.082 3.93489 269.082C2.71608 269.082 1.58937 265.841 1.43217 261.88ZM22.1652 261.529C22.846 257.967 22.2954 256.533 20.5101 257.218C16.9984 258.565 13.9463 240.456 17.146 237.257C18.7348 235.668 19.4455 236.94 19.4455 241.373C19.4455 245.296 21.7296 250.173 25.3232 253.924C30.232 259.047 30.7351 260.62 28.3758 263.463C24.1531 268.551 21.0099 267.572 22.1652 261.529ZM282.702 224.32C284.77 222.251 285.952 222.251 288.02 224.32C290.088 226.388 289.498 226.979 285.361 226.979C281.225 226.979 280.634 226.388 282.702 224.32ZM296.441 224.636C296.441 223.226 297.855 222.615 299.582 223.278C301.309 223.941 303.296 222.987 303.998 221.158C304.771 219.145 306.373 218.518 308.059 219.568C309.592 220.522 312.993 221.025 315.619 220.686C318.245 220.347 321.046 221.125 321.844 222.416C322.653 223.725 321.522 224.824 319.286 224.9C317.081 224.976 311.039 225.525 305.859 226.119C299.583 226.84 296.441 226.345 296.441 224.636ZM327.022 224.32C329.09 222.251 330.272 222.251 332.34 224.32C334.408 226.388 333.817 226.979 329.681 226.979C325.544 226.979 324.954 226.388 327.022 224.32ZM275.892 212.388C272.511 210.555 268.618 209.752 267.24 210.604C265.706 211.552 265.347 211.16 266.315 209.594C267.32 207.968 266.186 207.036 263.203 207.036C260.621 207.036 258.994 207.819 259.585 208.777C260.177 209.734 258.74 210.518 256.392 210.518C250.498 210.518 251.044 207.432 257.456 204.511C261.759 202.55 265.396 203.092 276.291 207.317C289.565 212.464 293.555 215.985 285.916 215.811C283.783 215.762 279.272 214.222 275.892 212.388ZM473.721 182.792C473.721 181.501 474.719 180.445 475.937 180.445C477.156 180.445 478.153 180.884 478.153 181.422C478.153 181.959 477.156 183.015 475.937 183.769C474.718 184.522 473.721 184.082 473.721 182.792ZM478.153 141.797C478.153 141.26 479.151 140.204 480.369 139.45C481.588 138.697 482.585 139.137 482.585 140.428C482.585 141.718 481.588 142.774 480.369 142.774C479.151 142.774 478.153 142.335 478.153 141.797ZM39.3968 130.848C39.3968 129.02 40.394 126.908 41.6127 126.155C42.8315 125.401 43.8287 126.281 43.8287 128.109C43.8287 129.937 42.8315 132.049 41.6127 132.803C40.3939 133.556 39.3968 132.676 39.3968 130.848ZM48.2605 130.717C48.2605 130.18 49.2577 129.124 50.4764 128.371C51.6952 127.617 52.6924 128.057 52.6924 129.348C52.6924 130.638 51.6952 131.694 50.4764 131.694C49.2577 131.694 48.2605 131.255 48.2605 130.717ZM61.5559 118.529C61.5559 117.239 62.553 116.182 63.7718 116.182C64.9905 116.182 65.9877 116.622 65.9877 117.16C65.9877 117.697 64.9906 118.753 63.7718 119.506C62.553 120.26 61.5559 119.82 61.5559 118.529ZM64.8294 98.3734C64.0793 97.1597 62.288 96.873 60.8488 97.7362C59.358 98.6303 59.5407 97.6923 61.2732 95.5564C64.4359 91.6574 71.5671 90.5015 73.4693 93.5795C74.0718 94.5543 72.6811 96.5283 70.3789 97.966C67.6752 99.6545 65.7103 99.7987 64.8294 98.3734ZM357.804 67.1792C355.597 65.8955 352.305 65.4158 350.487 66.1132C348.621 66.8292 347.772 66.4276 348.537 65.1907C349.281 63.9859 348.668 63.0001 347.175 63.0001C342.262 63.0001 347.276 60.0665 353.283 59.4261C360.184 58.6904 372.521 64.4541 370.622 67.5264C368.915 70.2881 362.867 70.1242 357.804 67.1792Z" fill="#F2F2F2"/>
</g>
</svg>
