<svg width="181" height="18" viewBox="0 0 181 18" fill="none" xmlns="http://www.w3.org/2000/svg">
<path d="M34.2285 18H39.246V4.6794H51.4322V0H34.2285V18Z" fill="white"/>
<path d="M91.9364 0H86.9189V17.9925H91.9364V0Z" fill="white"/>
<path d="M168.813 0H163.796V18H181V13.3206H168.813V0Z" fill="white"/>
<path d="M60.5742 18H65.5917V4.6794H77.7779V0H60.5742V18Z" fill="white"/>
<path d="M10.3475 0L0 18H5.61299L13.0796 5.00831L20.5462 18H26.1666L15.8191 0H10.3475Z" fill="white"/>
<path d="M113.265 12.9917L105.791 0H100.178L110.525 18H115.997L126.344 0H120.731L113.265 12.9917Z" fill="white"/>
<path d="M139.915 0L129.567 18H135.188L142.654 5.00831L150.121 18H155.734L145.386 0H139.915Z" fill="white"/>
</svg>
