<svg width="178" height="48" viewBox="0 0 178 48" fill="none" xmlns="http://www.w3.org/2000/svg">
<path d="M92.803 37.37C87.623 37.37 82.443 34.336 82.443 28.305V19.314C82.443 13.394 87.623 10.434 92.803 10.434C96.207 10.434 100.092 11.84 101.905 16.021L96.355 18.574C95.726 17.02 94.209 16.317 92.729 16.317C90.879 16.317 89.066 17.39 89.066 19.314V28.305C89.066 30.34 90.99 31.376 92.877 31.376C94.801 31.376 96.725 30.34 96.725 28.305V27.343H92.544V21.793H103.089V28.305C103.089 34.336 98.057 37.37 92.803 37.37ZM113.969 37.074C108.826 38.369 104.904 35.409 104.904 30.081V10.804H111.157V30.007C111.157 31.524 112.415 31.968 113.969 31.635V37.074ZM122.587 37.37C118.665 37.333 114.78 35.076 114.78 30.599V24.531C114.78 19.795 118.665 17.501 122.587 17.464C126.472 17.501 130.431 19.795 130.431 24.531V30.599C130.431 35.113 126.509 37.37 122.587 37.37ZM122.587 32.116C123.401 32.116 124.289 31.561 124.289 30.673V24.42C124.289 23.532 123.327 23.014 122.587 23.014C121.847 23.014 120.885 23.532 120.885 24.42V30.673C120.885 31.561 121.773 32.116 122.587 32.116ZM140.612 37.37C137.911 37.37 135.025 36.667 132.731 35.779V10.804H139.021V17.908C139.724 17.649 140.538 17.464 141.278 17.464C144.941 17.464 148.456 19.647 148.456 24.272V30.377C148.456 35.631 144.793 37.37 140.612 37.37ZM140.242 32.523C141.315 32.523 142.277 32.042 142.277 30.821V24.383C142.277 23.088 141.352 22.607 140.316 22.607C139.835 22.607 139.354 22.829 139.021 22.977V32.301C139.391 32.449 139.798 32.523 140.242 32.523ZM157.922 37.37C152.483 37.37 149.856 35.002 149.856 31.006C149.856 27.713 152.261 25.049 157.071 25.049C157.663 25.049 158.662 25.086 159.291 25.197V25.049C159.328 22.977 158.033 22.459 156.701 22.459C155.369 22.459 154.333 22.977 153.371 23.828L150.485 20.905C152.261 18.5 154.999 17.464 157.737 17.464C161.659 17.464 165.322 19.61 165.322 24.309V36.075C162.88 36.963 160.179 37.37 157.922 37.37ZM157.848 32.745C158.292 32.745 158.773 32.671 159.217 32.56V29.267C158.847 29.156 158.44 29.082 158.07 29.082C156.812 29.082 155.702 29.748 155.702 30.969C155.702 32.338 156.738 32.745 157.848 32.745ZM176.807 37.074C171.664 38.369 167.742 35.409 167.742 30.081V10.804H173.995V30.007C173.995 31.524 175.253 31.968 176.807 31.635V37.074Z" fill="black"/>
<g clip-path="url(#clip0_810_873)">
<path fill-rule="evenodd" clip-rule="evenodd" d="M75.2664 0C74.556 1.48831 73.9488 2.79985 73.3068 4.09466C70.35 10.0408 67.4196 15.9988 64.4016 21.9126C63.66 23.3651 63.636 24.5812 64.386 26.0551C67.7988 32.7562 71.1132 39.5072 74.4564 46.2418C74.7096 46.7554 74.928 47.2904 75.2484 48H0V0H75.2664Z" fill="#AD475C"/>
<path d="M24.6992 37.2186L18.6532 28.8228H17.4735V37.2186H10.8008V10.8H21.2338C24.1094 10.8 26.4196 11.509 28.1645 12.9269C29.9341 14.345 30.8558 16.534 30.9295 19.4943C30.9295 24.171 29.2214 27.0567 25.8051 28.1512L32.9203 37.2186H24.6992ZM17.4735 23.0765H21.3443C22.6469 23.0765 23.5687 22.5789 24.1094 21.5838C24.65 20.564 24.65 19.5564 24.1094 18.5614C23.5687 17.5415 22.6469 17.0315 21.3443 17.0315H17.4735V23.0765Z" fill="white"/>
<path d="M53.7673 18.86C53.7427 19.5814 53.497 20.365 53.03 21.2108C52.5876 22.0565 51.9364 22.7033 51.0761 23.151C52.6736 23.972 53.7427 25.0666 54.2834 26.4347C54.8242 27.803 54.9839 29.1214 54.7627 30.39C54.0499 34.9425 50.9532 37.2186 45.4726 37.2186H34.8184V10.8H45.2882C47.8442 10.8 49.9087 11.5339 51.4817 13.0016C53.0791 14.4444 53.841 16.3972 53.7673 18.86ZM41.4541 21.1361H45.2882C46.2959 21.1361 47.0086 20.7506 47.4264 19.9793C47.8688 19.1834 47.8811 18.3998 47.4632 17.6285C47.0454 16.8326 46.3205 16.4345 45.2882 16.4345H41.4541V21.1361ZM41.4541 31.3602H45.2882C46.5416 31.3602 47.4142 30.9125 47.9057 30.017C48.4218 29.0966 48.4218 28.1885 47.9057 27.293C47.3896 26.3974 46.517 25.9497 45.2882 25.9497H41.4541V31.3602Z" fill="white"/>
</g>
<defs>
<clipPath id="clip0_810_873">
<rect width="76" height="48" fill="white"/>
</clipPath>
</defs>
</svg>
